<svg width="33" height="21" viewBox="0 0 33 21" fill="none" xmlns="http://www.w3.org/2000/svg">
<rect width="31.0296" height="19.943" transform="translate(32 21) rotate(-179.858)" fill="white"/>
<path d="M26.8525 11.2436C26.8517 11.5592 26.4862 11.819 26.0128 11.8591L25.8812 11.8645L6.48782 11.8165C5.95229 11.8151 5.51884 11.535 5.51969 11.1909C5.52047 10.8753 5.88591 10.6155 6.35931 10.5754L6.49091 10.57L25.8843 10.618C26.4199 10.6193 26.8533 10.8994 26.8525 11.2436Z" fill="#668964"/>
<path d="M14.984 15.7787C15.3629 16.0225 15.3632 16.4171 14.9847 16.6601C14.6407 16.881 14.102 16.9005 13.7222 16.7191L13.6134 16.6586L5.80378 11.6336C5.45831 11.4113 5.42769 11.0637 5.71138 10.8201L5.80591 10.7503L13.6403 5.76316C14.0204 5.52123 14.6343 5.52356 15.0116 5.76838C15.3546 5.99095 15.3839 6.33729 15.1009 6.5802L15.0066 6.64974L7.86367 11.1973L14.984 15.7787Z" fill="#668964"/>
</svg>
