<svg width="90" height="89" viewBox="0 0 90 89" fill="none" xmlns="http://www.w3.org/2000/svg">
<circle cx="37" cy="52" r="37" fill="#46A358" fill-opacity="0.13"/>
<g clip-path="url(#clip0_130_303)">
<path d="M51.3004 44.0271C51.3202 44.5113 51.4592 44.9693 51.7174 45.3815C51.9391 45.7414 52.505 45.3979 52.2833 45.0413C52.088 44.7239 51.9788 44.3869 51.9656 44.0172C51.9457 43.5952 51.2838 43.6083 51.3004 44.0271Z" fill="#46A358"/>
<path d="M59.8092 43.9845C59.7761 44.1677 59.7397 44.3476 59.7066 44.5308C59.6735 44.7042 59.7661 44.8842 59.9449 44.93C60.1103 44.9725 60.3155 44.8678 60.3486 44.6944C60.3817 44.5112 60.4181 44.3313 60.4512 44.1481C60.4843 43.9747 60.3916 43.7947 60.2129 43.7489C60.0475 43.7064 59.8423 43.8111 59.8092 43.9845Z" fill="#46A358"/>
<path d="M64.3398 44.6355C64.7668 44.6257 64.7535 43.9714 64.3266 43.9812C63.8997 43.991 63.9129 44.6453 64.3398 44.6355Z" fill="#46A358"/>
<path d="M39.4822 45.7937C39.9091 45.7839 39.8959 45.1296 39.4689 45.1394C39.042 45.1492 39.0552 45.8035 39.4822 45.7937Z" fill="#46A358"/>
<path d="M51.5883 4.38731C49.0334 11.8369 47.6401 19.6399 47.4878 27.5083C47.4117 31.4638 47.6467 35.4225 48.1928 39.342C48.4443 41.1479 48.762 42.9474 49.1459 44.7304C49.4471 46.1242 49.6026 47.7175 50.6484 48.7808C51.0952 49.2355 51.7803 48.5256 51.3368 48.0741C50.2083 46.9257 50.0924 44.4981 49.8012 42.9964C49.4338 41.0989 49.1426 39.1849 48.9275 37.2612C48.5204 33.6231 48.3847 29.9588 48.5138 26.301C48.7752 18.9201 50.1553 11.621 52.5514 4.62941C52.7566 4.03069 51.7902 3.79186 51.5883 4.38731Z" fill="#46A358"/>
<path d="M55.4406 4.52141C56.7777 11.9645 56.8108 19.5712 57.0788 27.1058C57.2046 30.6458 57.4197 34.1956 57.3469 37.7388C57.2708 41.4162 56.546 44.8744 55.5697 48.4078C55.4009 49.0196 56.364 49.2584 56.5328 48.6499C57.4495 45.3422 58.1776 42.0771 58.3166 38.6353C58.4721 34.791 58.2107 30.9272 58.075 27.0895C57.8036 19.4632 57.7473 11.778 56.3938 4.24332C56.2812 3.6217 55.3281 3.90307 55.4406 4.52141Z" fill="#46A358"/>
<path d="M62.6288 17.3105C63.0822 27.4952 63.4926 37.8043 60.9774 47.7796C60.8218 48.3947 61.7849 48.6336 61.9405 48.0217C64.4755 37.9613 64.0817 27.5606 63.6217 17.2908C63.5919 16.6594 62.599 16.6758 62.6288 17.3105Z" fill="#46A358"/>
<path d="M59.8224 17.4609C58.4158 19.0869 57.4759 20.978 57.0622 23.0817C56.9398 23.7 57.9029 23.9454 58.0253 23.3238C58.4059 21.3804 59.2366 19.6464 60.5372 18.1414C60.9509 17.6605 60.2394 16.98 59.8224 17.4609Z" fill="#46A358"/>
<path d="M69.6054 23.7164C69.5822 31.0908 68.5828 38.3965 66.6235 45.5124C66.4547 46.1242 67.4178 46.363 67.5866 45.7545C69.5657 38.5568 70.5751 31.1562 70.5983 23.6968C70.5983 23.0654 69.6054 23.085 69.6054 23.7164Z" fill="#46A358"/>
<path d="M67.719 21.5211C65.1509 24.4624 63.8899 28.0841 62.9831 31.8106C62.8342 32.4257 63.7973 32.6678 63.9462 32.0527C64.8133 28.5029 65.9849 25.012 68.4372 22.2017C68.8509 21.724 68.136 21.0402 67.719 21.5211Z" fill="#46A358"/>
<path d="M43.7547 10.4171C45.522 14.5329 46.8061 18.7991 47.6004 23.1995C47.7129 23.8212 48.6628 23.5365 48.5535 22.9182C47.7593 18.5178 46.4719 14.2515 44.7079 10.1357C44.4597 9.56317 43.5065 9.83472 43.7547 10.4171Z" fill="#46A358"/>
<path d="M41.9146 10.7736C41.395 17.0193 40.8854 23.3434 41.9378 29.5662C43.0399 36.0572 45.7471 42.3912 47.8287 48.6237C48.0273 49.2224 48.9804 48.9443 48.7819 48.3423C46.7664 42.2995 44.1618 36.1553 42.9968 29.8868C41.8253 23.5757 42.378 17.101 42.9075 10.754C42.9604 10.1258 41.9676 10.1487 41.9146 10.7736Z" fill="#46A358"/>
<path d="M35.5969 25.8626C38.9097 28.9118 41.5937 32.4779 43.6059 36.4858C43.8905 37.0518 44.7345 36.5348 44.4532 35.9721C42.4046 31.8923 39.6577 28.2575 36.2853 25.1526C35.8186 24.7241 35.1303 25.4307 35.5969 25.8626Z" fill="#46A358"/>
<path d="M33.3231 27.1222C35.8879 34.6995 39.3398 41.9364 43.6256 48.7088C43.9632 49.2454 44.8137 48.735 44.4728 48.1951C40.23 41.4915 36.8146 34.3396 34.2762 26.8409C34.0743 26.2454 33.1212 26.5203 33.3231 27.1222Z" fill="#46A358"/>
<path d="M39.0685 46.7621C37.6057 44.1775 35.4611 42.028 32.7936 40.6604C32.2509 40.3823 31.7313 40.4543 32.7837 40.3496C33.1676 40.3104 33.5647 40.294 33.9486 40.3005C35.1996 40.3136 36.3315 40.5361 37.4071 41.2068C38.6581 41.9855 39.7502 43.1044 40.8688 44.0564C41.352 44.4687 42.0404 43.762 41.5572 43.3498C40.1407 42.1392 38.7375 40.6277 37 39.8752C36.0303 39.4532 34.9812 39.3288 33.9288 39.3256C33.2603 39.3223 31.8703 39.198 31.311 39.7607C30.2188 40.8535 32.3104 41.498 32.9624 41.8808C35.1996 43.1829 36.9603 45.0543 38.2212 47.2856C38.5323 47.8287 39.3796 47.315 39.0685 46.7621Z" fill="#46A358"/>
<path d="M69.2811 38.7923C70.2508 36.6559 72.5046 35.9852 74.6492 35.5403C74.9636 35.4749 75.0893 35.0626 74.9305 34.814C73.7655 32.9949 71.6441 32.8084 69.6551 32.9884C69.023 33.044 69.0362 34.0255 69.675 33.9699C71.2801 33.8259 73.1169 33.8161 74.0832 35.3276C74.1759 35.0855 74.2719 34.8434 74.3646 34.6013C71.9751 35.0953 69.483 35.9492 68.414 38.3147C68.1526 38.8872 69.0197 39.3682 69.2811 38.7923Z" fill="#46A358"/>
<path d="M35.4313 24.9138C34.9944 25.4831 34.5046 26.193 33.7798 26.4221C33.065 26.6478 32.3005 26.3239 32.3567 25.47C32.3998 24.8026 32.9789 24.3151 33.5415 24.037C34.1968 23.7131 35.9939 23.5593 35.5173 24.8026C35.2923 25.3948 36.2553 25.627 36.4804 25.0447C36.9404 23.844 35.835 22.7938 34.6635 22.7709C33.4323 22.748 31.9993 23.5561 31.536 24.711C31.1024 25.7808 31.5558 27.1189 32.7605 27.4232C34.2332 27.7929 35.3485 26.638 36.1494 25.5976C36.53 25.0938 35.8185 24.41 35.4313 24.9138Z" fill="#46A358"/>
<path d="M43.9963 9.6809C43.3775 9.7954 42.4806 10.1945 41.8617 9.86738C41.2428 9.53694 41.3553 8.71575 41.7128 8.24135C42.0867 7.74733 42.6758 7.56739 43.2715 7.73097C43.7547 7.86511 45.2606 9.11489 44.2115 9.54676C43.629 9.78559 43.9037 10.7311 44.4961 10.489C45.7371 9.97862 45.6941 8.55871 44.8965 7.64591C44.0923 6.72329 42.6527 6.37322 41.5771 7.04392C40.6372 7.63282 40.1143 8.91532 40.6239 9.94263C41.3454 11.4018 43.0333 10.8522 44.281 10.6231C44.9065 10.5054 44.6185 9.56311 43.9963 9.6809Z" fill="#46A358"/>
<path d="M55.7915 3.6937C54.931 3.9129 53.9282 4.17136 53.0413 3.9587C51.7936 3.66425 51.7472 2.25089 52.6243 1.51803C53.3259 0.932397 54.4015 0.866963 55.252 1.12215C55.7882 1.28247 56.417 1.62927 56.5626 2.21162C56.7016 2.758 56.4335 3.29782 55.8775 3.43196C55.2586 3.58246 55.5399 4.5247 56.1621 4.37421C57.6415 4.01432 57.9658 2.19199 57.0557 1.11888C56.0298 -0.0883685 53.9712 -0.294485 52.5912 0.372939C51.2938 1.0011 50.5029 2.68929 51.3666 3.97833C52.3661 5.47349 54.6199 5.00237 56.0728 4.6294C56.6917 4.47563 56.4103 3.53338 55.7915 3.6937Z" fill="#46A358"/>
<path d="M62.8704 13.3419C61.444 13.09 59.8819 13.4989 59.23 14.8959C58.7004 16.0279 59.2002 17.4969 60.4313 17.9222C61.6724 18.3508 63.5555 17.8208 64.2439 16.6823C64.9025 15.5863 64.4259 14.1958 63.3867 13.5414C62.8473 13.2012 62.3674 14.0616 62.9035 14.3986C63.572 14.8174 63.7905 15.7695 63.2444 16.3813C62.7579 16.9276 61.7187 17.1599 61.0138 17.0356C60.107 16.8753 59.7562 15.9363 60.2096 15.1609C60.706 14.3136 61.7286 14.1369 62.6288 14.2939C63.2543 14.4052 63.4992 13.4531 62.8704 13.3419Z" fill="#46A358"/>
<path d="M70.5651 18.7663C69.3108 18.6845 67.5733 18.8612 67.2953 20.3793C67.0669 21.6225 68.4966 23.2649 69.5921 23.7066C72.7196 24.9662 73.3881 18.6845 70.6908 18.8514C70.0554 18.8906 70.072 19.8721 70.7107 19.8329C71.5877 19.7773 71.3726 21.8286 71.174 22.2343C70.7074 23.1995 69.8138 22.8461 69.2247 22.231C68.7713 21.7566 67.9572 20.9158 68.4271 20.2353C68.8805 19.581 69.8932 19.7053 70.5849 19.7478C71.2237 19.7904 71.1972 18.8089 70.5651 18.7663Z" fill="#46A358"/>
<path d="M52.6374 6.17685C52.5381 6.50729 52.4355 6.83773 52.3362 7.16817C52.2138 7.57386 52.8558 7.7309 52.9783 7.32849C53.0776 6.99805 53.1802 6.66761 53.2795 6.33717C53.4019 5.93148 52.7599 5.77444 52.6374 6.17685Z" fill="#46A358"/>
<path d="M54.0506 6.23258C54.0539 6.45178 54.0605 6.66771 54.0638 6.88692C54.0738 7.30896 54.7357 7.29588 54.7257 6.87383C54.7224 6.65463 54.7158 6.43869 54.7125 6.21949C54.7059 5.79744 54.044 5.81053 54.0506 6.23258Z" fill="#46A358"/>
<path d="M53.5808 10.1683C54.0077 10.1585 53.9945 9.50415 53.5675 9.51396C53.1439 9.52051 53.1571 10.1748 53.5808 10.1683Z" fill="#46A358"/>
<path d="M51.605 10.5348C51.5752 10.8979 51.5455 11.2643 51.519 11.6275C51.5057 11.8042 51.6911 11.9514 51.8566 11.9481C52.0518 11.9448 52.1676 11.7911 52.1809 11.6144C52.2107 11.2513 52.2405 10.8848 52.2669 10.5217C52.2802 10.345 52.0948 10.1978 51.9294 10.201C51.7341 10.2043 51.6183 10.3581 51.605 10.5348Z" fill="#46A358"/>
<path d="M53.1703 11.5948C53.1802 11.9939 53.1868 12.3931 53.1968 12.7955C53.2067 13.2175 53.8686 13.2044 53.8587 12.7824C53.8487 12.3832 53.8421 11.9841 53.8322 11.5817C53.8223 11.1596 53.1603 11.1727 53.1703 11.5948Z" fill="#46A358"/>
<path d="M54.3419 9.27847C54.3849 9.60564 54.4279 9.9328 54.471 10.2567C54.4941 10.4334 54.6166 10.5806 54.8085 10.5773C54.9707 10.5741 55.156 10.4203 55.1329 10.2436C55.0898 9.91645 55.0468 9.58928 55.0038 9.26538C54.9806 9.08871 54.8582 8.94148 54.6662 8.94476C54.5008 8.94803 54.3154 9.1018 54.3419 9.27847Z" fill="#46A358"/>
<path d="M54.4379 14.186C54.4412 14.3692 54.4445 14.5492 54.4478 14.7324C54.4577 15.1544 55.1196 15.1413 55.1097 14.7193C55.1064 14.5361 55.1031 14.3561 55.0998 14.1729C55.0898 13.7509 54.4279 13.764 54.4379 14.186Z" fill="#46A358"/>
<path d="M53.0048 8.86957C52.9717 9.19347 53.0445 9.49773 53.1802 9.79218C53.253 9.9525 53.4979 9.98521 53.6369 9.90015C53.8057 9.79873 53.8189 9.61224 53.7461 9.44866C53.66 9.26217 53.6468 9.05605 53.6667 8.85321C53.6832 8.67654 53.4913 8.52931 53.3291 8.53259C53.1338 8.53913 53.0213 8.6929 53.0048 8.86957Z" fill="#46A358"/>
<path d="M50.6948 14.0649C50.6286 14.4313 50.5624 14.7945 50.4962 15.1609C50.4201 15.5731 51.0622 15.7367 51.1383 15.3212C51.2045 14.9548 51.2707 14.5916 51.3369 14.2252C51.4097 13.813 50.7709 13.6494 50.6948 14.0649Z" fill="#46A358"/>
<path d="M52.5183 16.3223C52.4885 16.5775 52.4554 16.8327 52.4256 17.0879C52.4058 17.2645 52.4753 17.4379 52.6639 17.487C52.8195 17.5263 53.0445 17.4281 53.0677 17.2515C53.0975 16.9963 53.1306 16.7411 53.1603 16.4859C53.1802 16.3092 53.1107 16.1358 52.9221 16.0867C52.7665 16.0442 52.5415 16.1456 52.5183 16.3223Z" fill="#46A358"/>
<path d="M51.9359 20.978C51.9888 21.2561 51.9557 21.5277 51.8664 21.7927C51.7307 22.1918 52.3727 22.3521 52.5084 21.953C52.6375 21.5735 52.6474 21.1841 52.5713 20.7915C52.5382 20.6181 52.3198 20.5233 52.1609 20.5723C51.9723 20.628 51.8995 20.8046 51.9359 20.978Z" fill="#46A358"/>
<path d="M49.9138 18.3378C49.884 18.593 49.8509 18.8482 49.8211 19.1034C49.8013 19.28 49.8708 19.4534 50.0594 19.5025C50.215 19.5418 50.44 19.4436 50.4632 19.2669C50.493 19.0117 50.5261 18.7566 50.5559 18.5014C50.5757 18.3247 50.5062 18.1513 50.3176 18.1022C50.1587 18.063 49.9337 18.1611 49.9138 18.3378Z" fill="#46A358"/>
<path d="M54.4214 18.8579C54.5008 19.2211 54.5769 19.5842 54.6563 19.9441C54.7457 20.3564 55.3811 20.1666 55.2918 19.7576C55.2123 19.3945 55.1362 19.0313 55.0568 18.6714C54.9674 18.2592 54.3353 18.4457 54.4214 18.8579Z" fill="#46A358"/>
<path d="M54.8548 23.6673C54.8614 24.0305 54.8713 24.3936 54.878 24.7568C54.8879 25.1788 55.5498 25.1658 55.5399 24.7437C55.5332 24.3806 55.5233 24.0174 55.5167 23.6542C55.5101 23.2322 54.8482 23.2453 54.8548 23.6673Z" fill="#46A358"/>
<path d="M54.0737 28.4637C54.1167 28.7189 54.1564 28.9708 54.1995 29.226C54.2292 29.3994 54.4543 29.491 54.6098 29.4452C54.7985 29.3896 54.8614 29.2129 54.8316 29.0395C54.7886 28.7843 54.7488 28.5324 54.7058 28.2772C54.676 28.1038 54.451 28.0122 54.2954 28.058C54.1068 28.1103 54.0439 28.287 54.0737 28.4637Z" fill="#46A358"/>
<path d="M51.3733 26.0295C51.3766 26.2487 51.3833 26.4647 51.3866 26.6839C51.3965 27.1059 52.0584 27.0928 52.0485 26.6708C52.0452 26.4516 52.0386 26.2356 52.0352 26.0164C52.0286 25.5944 51.3667 25.6075 51.3733 26.0295Z" fill="#46A358"/>
<path d="M49.5496 23.2289C49.5728 23.5004 49.5463 23.7556 49.4669 24.0174C49.3444 24.423 49.9865 24.5801 50.1089 24.1777C50.2049 23.8669 50.238 23.5397 50.2115 23.2158C50.1751 22.8003 49.5132 22.8101 49.5496 23.2289Z" fill="#46A358"/>
<path d="M50.3804 30.7604C50.3473 31.0156 50.3175 31.2708 50.2844 31.526C50.2613 31.7026 50.3341 31.876 50.5227 31.9251C50.6783 31.9644 50.9033 31.8662 50.9265 31.6895C50.9596 31.4343 50.9894 31.1792 51.0225 30.924C51.0456 30.7473 50.9728 30.5739 50.7842 30.5248C50.6253 30.4856 50.4036 30.5837 50.3804 30.7604Z" fill="#46A358"/>
<path d="M53.756 34.4672C53.799 34.6832 53.8387 34.9024 53.8818 35.1183C53.9149 35.2917 54.1333 35.3866 54.2921 35.3375C54.4775 35.2819 54.547 35.1052 54.5139 34.9318C54.4709 34.7159 54.4311 34.4967 54.3881 34.2807C54.355 34.1073 54.1366 34.0125 53.9777 34.0615C53.7924 34.1172 53.7229 34.2938 53.756 34.4672Z" fill="#46A358"/>
<path d="M51.9657 38.2133C52.0452 38.5764 52.1279 38.9363 52.2073 39.2995C52.3 39.7117 52.9321 39.5219 52.8428 39.113C52.7633 38.7498 52.6806 38.3899 52.6012 38.0268C52.5085 37.6145 51.8731 37.801 51.9657 38.2133Z" fill="#46A358"/>
<path d="M55.6591 40.5819C55.5896 40.8371 55.5234 41.0923 55.4539 41.3507C55.3446 41.7597 55.9867 41.92 56.0959 41.511C56.1654 41.2558 56.2316 41.0006 56.3011 40.7422C56.4103 40.3332 55.7683 40.1729 55.6591 40.5819Z" fill="#46A358"/>
<path d="M55.166 12.1871C55.2091 12.4423 55.2521 12.6942 55.2951 12.9494C55.3249 13.1228 55.5499 13.2144 55.7055 13.1686C55.8941 13.113 55.957 12.9363 55.9272 12.7629C55.8842 12.5077 55.8412 12.2558 55.7981 12.0006C55.7684 11.8272 55.5433 11.7356 55.3878 11.7814C55.2024 11.837 55.1362 12.0137 55.166 12.1871Z" fill="#46A358"/>
<path d="M55.2454 16.679C55.2918 17.0061 55.3381 17.33 55.3844 17.6572C55.4109 17.8306 55.5267 17.9811 55.722 17.9778C55.8842 17.9746 56.0695 17.8208 56.0463 17.6441C56 17.317 55.9537 16.9931 55.9073 16.6659C55.8809 16.4925 55.765 16.342 55.5698 16.3453C55.4076 16.3485 55.2189 16.5056 55.2454 16.679Z" fill="#46A358"/>
<path d="M60.2097 20.3106C60.1204 20.8243 60.0277 21.3347 59.9384 21.8483C59.8656 22.2605 60.5076 22.4241 60.5804 22.0086C60.6698 21.495 60.7624 20.9846 60.8518 20.4709C60.9246 20.0587 60.2826 19.8951 60.2097 20.3106Z" fill="#46A358"/>
<path d="M61.4971 19.388C61.5037 19.6432 61.507 19.8984 61.5137 20.1503C61.5236 20.5724 62.1855 20.5593 62.1756 20.1373C62.1689 19.8821 62.1656 19.6269 62.159 19.3749C62.1491 18.9529 61.4905 18.966 61.4971 19.388Z" fill="#46A358"/>
<path d="M61.1364 22.8854C61.0735 23.4318 61.0139 23.9781 60.9511 24.5245C60.9047 24.9433 61.5666 24.9237 61.613 24.5114C61.6758 23.9651 61.7354 23.4187 61.7983 22.8723C61.8446 22.4568 61.1827 22.4732 61.1364 22.8854Z" fill="#46A358"/>
<path d="M59.422 23.844C59.2796 24.1384 59.1406 24.4329 58.9983 24.724C58.8163 25.1036 59.3955 25.4242 59.5775 25.0414C59.7198 24.7469 59.8588 24.4525 60.0011 24.1613C60.1832 23.7818 59.604 23.4612 59.422 23.844Z" fill="#46A358"/>
<path d="M58.4258 22.0937C58.3398 22.3162 58.257 22.5354 58.171 22.7579C58.1081 22.9247 58.2504 23.1145 58.4093 23.157C58.5979 23.2061 58.7468 23.085 58.813 22.9215C58.8991 22.699 58.9818 22.4798 59.0679 22.2573C59.1307 22.0904 58.9884 21.9007 58.8296 21.8582C58.6409 21.8091 58.492 21.9269 58.4258 22.0937Z" fill="#46A358"/>
<path d="M60.3155 26.3926C60.3023 26.6838 60.2924 26.975 60.2791 27.2662C60.2626 27.6882 60.9245 27.6719 60.941 27.2531C60.9543 26.9619 60.9642 26.6707 60.9774 26.3795C60.994 25.9575 60.3321 25.9739 60.3155 26.3926Z" fill="#46A358"/>
<path d="M61.6724 28.1103C61.6592 28.3818 61.646 28.6566 61.6327 28.9282C61.6228 29.1048 61.8015 29.2521 61.9703 29.2488C62.1589 29.2455 62.2847 29.0918 62.2946 28.9151C62.3079 28.6435 62.3211 28.3687 62.3343 28.0972C62.3443 27.9205 62.1656 27.7733 61.9968 27.7765C61.8081 27.7798 61.6824 27.9336 61.6724 28.1103Z" fill="#46A358"/>
<path d="M61.1497 31.0351C61.1199 31.2707 61.0868 31.5095 61.057 31.7451C61.0339 31.9185 61.11 32.0952 61.2953 32.1442C61.4542 32.1835 61.6759 32.0853 61.6991 31.9087C61.7288 31.6731 61.7619 31.4343 61.7917 31.1987C61.8149 31.0253 61.7388 30.8487 61.5534 30.7996C61.3946 30.757 61.1728 30.8585 61.1497 31.0351Z" fill="#46A358"/>
<path d="M58.6808 29.0133C58.6477 29.2129 58.6146 29.4158 58.5815 29.6153C58.5517 29.7887 58.6377 29.9654 58.8198 30.0145C58.9819 30.0537 59.1937 29.9523 59.2235 29.7789C59.2566 29.5793 59.2897 29.3765 59.3228 29.1769C59.3526 29.0035 59.2665 28.8269 59.0845 28.7778C58.9224 28.7353 58.7105 28.8367 58.6808 29.0133Z" fill="#46A358"/>
<path d="M59.1573 34.2152C59.1606 34.3592 59.164 34.5064 59.1673 34.6504C59.1772 35.0724 59.8391 35.0593 59.8292 34.6373C59.8259 34.4933 59.8225 34.3461 59.8192 34.2022C59.8093 33.7801 59.1474 33.7932 59.1573 34.2152Z" fill="#46A358"/>
<path d="M61.2953 36.1357C61.2986 36.2796 61.3019 36.4268 61.3052 36.5708C61.3151 36.9928 61.977 36.9797 61.9671 36.5577C61.9638 36.4137 61.9605 36.2665 61.9572 36.1226C61.9473 35.7005 61.2853 35.7136 61.2953 36.1357Z" fill="#46A358"/>
<path d="M59.3889 40.1011C59.4154 40.3563 59.3889 40.5918 59.3061 40.8339C59.2499 41.0008 59.3823 41.1905 59.5444 41.2331C59.7298 41.2789 59.8886 41.1644 59.9482 40.9975C60.0475 40.7063 60.0839 40.3955 60.0508 40.0912C60.0309 39.9146 59.9019 39.7674 59.7132 39.7706C59.5444 39.7706 59.369 39.9244 59.3889 40.1011Z" fill="#46A358"/>
<path d="M60.2063 18.6518C60.1203 18.8186 60.0309 18.9855 59.9449 19.1491C59.7496 19.522 60.3254 19.8427 60.524 19.4664C60.6101 19.2996 60.6994 19.1327 60.7855 18.9691C60.9807 18.5962 60.4049 18.2755 60.2063 18.6518Z" fill="#46A358"/>
<path d="M43.0399 12.4324C43.0995 12.776 43.1624 13.1228 43.2219 13.4663C43.2517 13.6397 43.4768 13.7313 43.6323 13.6855C43.821 13.6299 43.8871 13.4532 43.854 13.2798C43.7945 12.9363 43.7316 12.5895 43.672 12.2459C43.6422 12.0725 43.4172 11.9809 43.2616 12.0267C43.073 12.0824 43.0068 12.259 43.0399 12.4324Z" fill="#46A358"/>
<path d="M44.0262 14.595C44.1785 14.9549 44.334 15.3181 44.4863 15.678C44.5558 15.8416 44.7146 15.9528 44.8966 15.8972C45.0522 15.8514 45.1879 15.6551 45.1184 15.4915C44.9661 15.1316 44.8106 14.7684 44.6584 14.4086C44.5889 14.245 44.43 14.1337 44.248 14.1894C44.0924 14.2352 43.9567 14.4315 44.0262 14.595Z" fill="#46A358"/>
<path d="M43.1226 15.8023C43.0465 16.3061 43.0531 16.787 43.1424 17.2843C43.2153 17.6966 43.8474 17.5101 43.7779 17.0978C43.7117 16.7249 43.7117 16.3388 43.7679 15.9626C43.8242 15.5503 43.1822 15.3868 43.1226 15.8023Z" fill="#46A358"/>
<path d="M44.3803 17.6932C44.4928 18.0008 44.602 18.3116 44.7145 18.6191C44.8568 19.015 45.4922 18.8318 45.3499 18.4326C45.2374 18.1251 45.1282 17.8143 45.0157 17.5067C44.8734 17.1109 44.2379 17.2941 44.3803 17.6932Z" fill="#46A358"/>
<path d="M42.8414 19.0019C42.848 19.3651 42.8579 19.7282 42.8645 20.0914C42.8745 20.5134 43.5364 20.5004 43.5264 20.0783C43.5198 19.7152 43.5099 19.352 43.5033 18.9888C43.4966 18.5668 42.8347 18.5799 42.8414 19.0019Z" fill="#46A358"/>
<path d="M44.0824 20.2321C44.089 20.5593 44.0956 20.8864 44.1022 21.2136C44.1122 21.6356 44.7741 21.6226 44.7641 21.2005C44.7575 20.8733 44.7509 20.5462 44.7443 20.219C44.7344 19.797 44.0725 19.81 44.0824 20.2321Z" fill="#46A358"/>
<path d="M45.9323 20.8799C46.0647 21.2594 46.2004 21.6389 46.3328 22.0184C46.4718 22.4143 47.1072 22.2311 46.9682 21.8319C46.8358 21.4524 46.7002 21.0729 46.5678 20.6934C46.4288 20.2975 45.7933 20.4807 45.9323 20.8799Z" fill="#46A358"/>
<path d="M46.6573 24.1384C46.697 24.3379 46.74 24.5375 46.7798 24.7371C46.8162 24.9105 47.0313 25.0054 47.1901 24.9563C47.3755 24.9007 47.4483 24.724 47.4119 24.5506C47.3722 24.351 47.3291 24.1515 47.2894 23.9519C47.253 23.7785 47.0379 23.6836 46.879 23.7327C46.697 23.785 46.6209 23.965 46.6573 24.1384Z" fill="#46A358"/>
<path d="M44.8402 24.1744C44.9494 24.4819 45.0289 24.796 45.0653 25.1199C45.0851 25.2965 45.2142 25.4438 45.4028 25.4405C45.5683 25.4372 45.747 25.2835 45.7272 25.1068C45.6841 24.724 45.6047 24.351 45.4756 23.9879C45.3333 23.592 44.6979 23.7752 44.8402 24.1744Z" fill="#46A358"/>
<path d="M43.1424 22.869C43.149 23.1242 43.1523 23.3794 43.1589 23.6313C43.1689 24.0533 43.8308 24.0403 43.8208 23.6182C43.8142 23.363 43.8109 23.1078 43.8043 22.8559C43.7944 22.4339 43.1358 22.4469 43.1424 22.869Z" fill="#46A358"/>
<path d="M43.9402 26.7786C43.9667 27.1058 44.0295 27.4264 44.1388 27.734C44.2811 28.1298 44.9165 27.9466 44.7742 27.5475C44.6815 27.2923 44.6219 27.0338 44.6021 26.7656C44.5723 26.3468 43.9104 26.3599 43.9402 26.7786Z" fill="#46A358"/>
<path d="M45.3896 29.5629C45.4491 29.7625 45.5087 29.9621 45.5683 30.1584C45.6874 30.5608 46.3228 30.3776 46.2037 29.9719C46.1441 29.7723 46.0846 29.576 46.025 29.3765C45.9058 28.974 45.2704 29.1573 45.3896 29.5629Z" fill="#46A358"/>
<path d="M46.1673 27.0372C46.2071 27.1812 46.2468 27.3251 46.2865 27.4723C46.399 27.878 47.0344 27.6915 46.9219 27.2859C46.8822 27.1419 46.8425 26.9979 46.8028 26.8507C46.6903 26.445 46.0548 26.6315 46.1673 27.0372Z" fill="#46A358"/>
<path d="M44.291 32.4779C44.3737 32.8018 44.4531 33.129 44.5359 33.4529C44.6385 33.8618 45.2739 33.6753 45.1713 33.2664C45.0885 32.9425 45.0091 32.6153 44.9264 32.2914C44.8238 31.8824 44.1884 32.0689 44.291 32.4779Z" fill="#46A358"/>
<path d="M45.9357 37.2416C45.9953 37.3855 46.0515 37.5295 46.1111 37.6735C46.1773 37.837 46.3395 37.9483 46.5215 37.8927C46.6803 37.8468 46.8094 37.6505 46.7432 37.487C46.6837 37.343 46.6274 37.1991 46.5678 37.0551C46.5016 36.8915 46.3395 36.7803 46.1574 36.8359C45.9986 36.8817 45.8695 37.078 45.9357 37.2416Z" fill="#46A358"/>
<path d="M67.4806 23.6836C67.3052 24.0337 67.1265 24.3805 66.9511 24.7306C66.7591 25.1068 67.3383 25.4275 67.5302 25.0479C67.7056 24.6979 67.8843 24.3511 68.0598 24.001C68.2517 23.6247 67.6725 23.3074 67.4806 23.6836Z" fill="#46A358"/>
<path d="M68.4073 24.5049C68.3246 24.8353 68.2385 25.1625 68.1558 25.4929C68.0499 25.9019 68.6919 26.0622 68.7978 25.6532C68.8806 25.3228 68.9666 24.9956 69.0494 24.6652C69.152 24.2595 68.5099 24.0992 68.4073 24.5049Z" fill="#46A358"/>
<path d="M67.5931 27.6326C67.5104 27.9074 67.4277 28.1823 67.3416 28.4571C67.2192 28.8628 67.8612 29.0198 67.9837 28.6174C68.0664 28.3426 68.1491 28.0678 68.2352 27.7929C68.3543 27.3905 67.7123 27.2302 67.5931 27.6326Z" fill="#46A358"/>
<path d="M67.0371 26.3076C66.9676 26.4352 66.8948 26.566 66.8253 26.6936C66.6201 27.0633 67.1993 27.384 67.4045 27.011C67.474 26.8834 67.5468 26.7525 67.6163 26.6249C67.8215 26.2585 67.2423 25.9379 67.0371 26.3076Z" fill="#46A358"/>
<path d="M68.672 26.4646C68.6422 26.7198 68.6124 26.975 68.5826 27.2302C68.5628 27.4069 68.6323 27.5803 68.8209 27.6293C68.9764 27.6686 69.2015 27.5704 69.2247 27.3938C69.2545 27.1386 69.2842 26.8834 69.314 26.6282C69.3339 26.4515 69.2644 26.2781 69.0757 26.2291C68.9169 26.1898 68.6918 26.2879 68.672 26.4646Z" fill="#46A358"/>
<path d="M65.5546 28.1626C65.4884 28.372 65.3891 28.5617 65.27 28.745C65.0383 29.0983 65.6175 29.4157 65.8492 29.0623C66.0014 28.8333 66.1139 28.5846 66.1966 28.3229C66.2496 28.1561 66.1238 27.9663 65.9584 27.9238C65.773 27.8812 65.6076 27.9925 65.5546 28.1626Z" fill="#46A358"/>
<path d="M65.5346 30.9763C65.3923 31.2086 65.3228 31.4736 65.3361 31.7452C65.3559 32.1639 66.0178 32.1541 65.998 31.7321C65.9914 31.5685 66.0244 31.4343 66.1138 31.2969C66.3355 30.9338 65.7564 30.6164 65.5346 30.9763Z" fill="#46A358"/>
<path d="M67.259 30.2565C67.1928 30.4757 67.1266 30.6982 67.0637 30.9174C66.9446 31.3231 67.5866 31.4801 67.7058 31.0777C67.772 30.8585 67.8382 30.636 67.901 30.4168C68.0202 30.0111 67.3781 29.8541 67.259 30.2565Z" fill="#46A358"/>
<path d="M66.7128 33.4823C66.6433 33.7211 66.5771 33.9567 66.5076 34.1955C66.3917 34.6012 67.0338 34.7615 67.1496 34.3558C67.2191 34.117 67.2853 33.8814 67.3548 33.6426C67.4706 33.2402 66.8286 33.0799 66.7128 33.4823Z" fill="#46A358"/>
<path d="M68.8112 28.8366C68.7946 28.9839 68.7814 29.1278 68.7648 29.275C68.745 29.4517 68.9402 29.5989 69.1024 29.5957C69.301 29.5924 69.4069 29.4386 69.4267 29.2619C69.4433 29.1147 69.4565 28.9708 69.4731 28.8235C69.4929 28.6469 69.2977 28.4997 69.1355 28.5029C68.9369 28.5095 68.831 28.66 68.8112 28.8366Z" fill="#46A358"/>
<path d="M64.6542 35.3799C64.6211 35.4912 64.5847 35.5991 64.5516 35.7104C64.4259 36.1128 65.0679 36.2731 65.1937 35.8707C65.2268 35.7595 65.2632 35.6515 65.2963 35.5402C65.422 35.1378 64.78 34.9808 64.6542 35.3799Z" fill="#46A358"/>
<path d="M64.1216 38.7204C64.0521 38.9036 63.9792 39.0868 63.9097 39.27C63.8469 39.4336 63.9892 39.6266 64.148 39.6691C64.34 39.7182 64.4856 39.5972 64.5518 39.4336C64.6213 39.2504 64.6941 39.0672 64.7636 38.8839C64.8265 38.7204 64.6842 38.5273 64.5253 38.4848C64.3334 38.4357 64.1877 38.5535 64.1216 38.7204Z" fill="#46A358"/>
<path d="M66.7262 37.3888C66.7295 37.4968 66.7295 37.608 66.7328 37.716C66.7427 38.138 67.4046 38.1249 67.3947 37.7029C67.3914 37.5949 67.3914 37.4837 67.3881 37.3757C67.3782 36.9537 66.7163 36.9668 66.7262 37.3888Z" fill="#46A358"/>
<path d="M65.4916 41.7237C65.475 41.8709 65.4618 42.0148 65.4452 42.1621C65.4254 42.3387 65.6207 42.486 65.7828 42.4827C65.9814 42.4794 66.0873 42.3257 66.1072 42.149C66.1237 42.0018 66.1369 41.8578 66.1535 41.7106C66.1733 41.5339 65.9781 41.3867 65.8159 41.3899C65.6207 41.3932 65.5114 41.547 65.4916 41.7237Z" fill="#46A358"/>
<path d="M35.2591 28.0808C35.3154 28.2608 35.375 28.444 35.4312 28.6239C35.557 29.0263 36.1924 28.8398 36.0667 28.4374C36.0104 28.2575 35.9508 28.0743 35.8946 27.8943C35.7655 27.4919 35.1301 27.6784 35.2591 28.0808Z" fill="#46A358"/>
<path d="M35.941 27.3382C36.1628 27.6097 36.3878 27.8813 36.6095 28.1495C36.7221 28.287 36.9637 28.2575 37.0762 28.1397C37.2119 27.999 37.1788 27.8158 37.0663 27.6784C36.8445 27.4069 36.6195 27.1353 36.3977 26.867C36.2852 26.7296 36.0436 26.7591 35.9311 26.8769C35.7954 27.0143 35.8285 27.2008 35.941 27.3382Z" fill="#46A358"/>
<path d="M37.2117 29.6415C37.4037 29.9098 37.5956 30.178 37.7843 30.443C38.0292 30.7866 38.5951 30.4463 38.3502 30.1028C38.1583 29.8345 37.9663 29.5662 37.7777 29.3012C37.5294 28.9577 36.9635 29.2947 37.2117 29.6415Z" fill="#46A358"/>
<path d="M36.3976 30.4234C36.5498 30.6753 36.7021 30.9272 36.8543 31.1791C37.0728 31.539 37.6387 31.1987 37.4203 30.8389C37.268 30.5869 37.1158 30.335 36.9635 30.0831C36.7418 29.7199 36.1792 30.0602 36.3976 30.4234Z" fill="#46A358"/>
<path d="M37.8803 33.1225C38.0722 33.4628 38.2675 33.803 38.4594 34.1433C38.6679 34.5097 39.2339 34.1694 39.0254 33.803C38.8334 33.4628 38.6382 33.1225 38.4462 32.7823C38.2344 32.4158 37.6718 32.7561 37.8803 33.1225Z" fill="#46A358"/>
<path d="M38.4661 32.1311C38.5984 32.3274 38.7308 32.527 38.8632 32.7233C39.0982 33.0734 39.6641 32.7331 39.4291 32.383C39.2967 32.1867 39.1644 31.9872 39.032 31.7909C38.7937 31.4408 38.2278 31.7778 38.4661 32.1311Z" fill="#46A358"/>
<path d="M38.7739 30.7572C38.8832 30.9894 39.0685 31.1694 39.2902 31.3003C39.6609 31.5129 39.9819 30.9404 39.6112 30.7277C39.4789 30.6525 39.3994 30.551 39.3366 30.4169C39.2604 30.2566 39.0222 30.2239 38.8798 30.3089C38.7177 30.4104 38.6978 30.5968 38.7739 30.7572Z" fill="#46A358"/>
<path d="M36.2917 32.4747C36.3348 32.6546 36.3745 32.8346 36.4175 33.0178C36.4572 33.1912 36.6657 33.286 36.8279 33.237C37.0099 33.1846 37.0893 33.0014 37.0496 32.8313C37.0066 32.6513 36.9669 32.4714 36.9239 32.2882C36.8841 32.1148 36.6756 32.0199 36.5135 32.069C36.3315 32.1213 36.252 32.3045 36.2917 32.4747Z" fill="#46A358"/>
<path d="M38.3802 35.8935C38.5325 36.2011 38.6847 36.5086 38.8336 36.8129C38.9131 36.9732 39.148 37.0059 39.2903 36.9208C39.4558 36.8227 39.479 36.6297 39.3996 36.4694C39.2473 36.1618 39.0951 35.8543 38.9462 35.55C38.8667 35.3897 38.6317 35.357 38.4894 35.442C38.324 35.5435 38.3008 35.7365 38.3802 35.8935Z" fill="#46A358"/>
<path d="M40.8523 34.9678C40.9682 35.1837 41.0807 35.3997 41.1965 35.6156C41.3951 35.9885 41.9577 35.645 41.7625 35.2753C41.6466 35.0594 41.5341 34.8435 41.4183 34.6275C41.2164 34.2546 40.6538 34.5948 40.8523 34.9678Z" fill="#46A358"/>
<path d="M41.6068 39.6463C41.7028 39.8262 41.7988 40.0061 41.8981 40.1828C42.0999 40.5558 42.6626 40.2123 42.464 39.8426C42.368 39.6626 42.272 39.4827 42.1727 39.306C41.9709 38.933 41.4049 39.2733 41.6068 39.6463Z" fill="#46A358"/>
<path d="M42.7818 37.9875C42.8943 38.1675 43.0101 38.3474 43.1227 38.5273C43.3477 38.884 43.9136 38.5437 43.6886 38.1871C43.5761 38.0071 43.4602 37.8272 43.3477 37.6473C43.1193 37.2907 42.5534 37.6309 42.7818 37.9875Z" fill="#46A358"/>
<path d="M44.0989 43.0324C44.1916 43.196 44.2875 43.3563 44.3802 43.5199C44.592 43.8863 45.1546 43.5428 44.9461 43.1796C44.8535 43.0161 44.7575 42.8558 44.6648 42.6922C44.453 42.3257 43.8871 42.666 44.0989 43.0324Z" fill="#46A358"/>
<path d="M33.4258 41.0106C33.6475 41.1153 33.8726 41.2167 34.0943 41.3214C34.4782 41.5014 34.8025 40.9288 34.4153 40.7489C34.1936 40.6442 33.9685 40.5428 33.7468 40.4381C33.3662 40.2614 33.0419 40.8307 33.4258 41.0106Z" fill="#46A358"/>
<path d="M35.5339 41.9625C35.7789 42.1359 36.0238 42.3126 36.2654 42.486C36.411 42.5906 36.636 42.5023 36.7154 42.3584C36.8114 42.1882 36.732 42.0181 36.5864 41.9134C36.3415 41.74 36.0966 41.5633 35.855 41.3899C35.7094 41.2852 35.4843 41.3736 35.4049 41.5175C35.3122 41.6877 35.3916 41.8578 35.5339 41.9625Z" fill="#46A358"/>
<path d="M35.2095 40.9615C35.3783 40.9975 35.5339 41.0531 35.6861 41.1381C36.0601 41.341 36.3811 40.7684 36.0071 40.5656C35.8085 40.4576 35.5934 40.3758 35.3717 40.3268C34.958 40.2352 34.7925 40.8699 35.2095 40.9615Z" fill="#46A358"/>
<path d="M37.1491 42.3584C37.298 42.4631 37.4469 42.5711 37.5959 42.6758C37.7415 42.7772 37.9665 42.6922 38.046 42.5482C38.1419 42.3781 38.0625 42.2047 37.9169 42.1032C37.768 41.9986 37.619 41.8906 37.4701 41.7859C37.3245 41.6845 37.0994 41.7695 37.02 41.9135C36.9273 42.0836 37.0035 42.2537 37.1491 42.3584Z" fill="#46A358"/>
<path d="M37.1027 43.3367C37.1788 43.4447 37.2549 43.5526 37.331 43.6606C37.5726 44.0041 38.1385 43.6672 37.8969 43.3204C37.8208 43.2124 37.7447 43.1044 37.6686 42.9965C37.427 42.6497 36.8577 42.9899 37.1027 43.3367Z" fill="#46A358"/>
<path d="M38.6018 43.8634C38.7507 43.9877 38.8996 44.1121 39.0519 44.2364C39.1876 44.3509 39.3894 44.3607 39.5185 44.2266C39.6376 44.1055 39.6476 43.8765 39.5086 43.7653C39.3596 43.6409 39.2107 43.5166 39.0585 43.3923C38.9228 43.2778 38.7209 43.268 38.5918 43.4021C38.4727 43.5199 38.4628 43.7489 38.6018 43.8634Z" fill="#46A358"/>
<path d="M72.7626 34.2251C72.4085 34.1596 72.0577 34.1662 71.7069 34.2545C71.2932 34.3592 71.4819 34.9874 71.8955 34.8827C72.1272 34.8238 72.3622 34.814 72.5972 34.8598C73.0175 34.9383 73.1796 34.3036 72.7626 34.2251Z" fill="#46A358"/>
<path d="M70.4791 34.9023C70.3534 34.9972 70.2243 35.0888 70.0986 35.1836C69.9562 35.2883 69.8901 35.4716 69.9893 35.6351C70.0754 35.7758 70.3004 35.8511 70.4461 35.7431C70.5718 35.6482 70.7009 35.5566 70.8266 35.4617C70.969 35.357 71.0351 35.1738 70.9359 35.0103C70.8498 34.8696 70.6248 34.7976 70.4791 34.9023Z" fill="#46A358"/>
<path d="M70.585 34.5817C71.0119 34.5719 70.9986 33.9175 70.5717 33.9274C70.1448 33.9372 70.158 34.5915 70.585 34.5817Z" fill="#46A358"/>
</g>
<g clip-path="url(#clip1_130_303)">
<path d="M37.3859 47.6164C35.0447 53.631 33.3971 59.9163 32.8568 66.3709C32.3966 71.8879 32.5367 77.8381 35.5583 82.6511C35.9051 83.2028 36.7589 82.6748 36.412 82.1197C33.3804 77.2932 33.3871 71.238 33.9141 65.7244C34.501 59.5812 36.1285 53.5938 38.3564 47.8669C38.5898 47.261 37.6193 47.0173 37.3859 47.6164Z" fill="#727272"/>
<path d="M67.7883 46.6855C73.1144 50.7471 73.121 58.1934 73.6947 64.3061C73.9848 67.3895 74.385 70.4831 74.5251 73.5801C74.6552 76.4097 74.4217 79.4153 72.2139 81.419C71.7337 81.8556 72.4574 82.5562 72.9343 82.123C74.8786 80.3596 75.4789 77.8346 75.5456 75.2724C75.6424 71.6238 75.032 67.9142 74.6919 64.2892C74.0949 57.9192 74.0215 50.1819 68.4786 45.9544C67.9717 45.5652 67.2747 46.2929 67.7883 46.6855Z" fill="#727272"/>
<path d="M35.7582 82.8541C38.583 83.8864 41.4712 84.1437 44.4427 84.3975C47.7311 84.6784 51.0495 85.1015 54.3546 84.9831C57.7096 84.8646 61.0747 84.3806 64.4098 84.015C67.328 83.6935 70.2228 83.2873 72.9443 82.1095C73.5279 81.8556 73.2511 80.8775 72.6574 81.1347C69.836 82.3566 66.8411 82.7356 63.8162 83.0606C60.6679 83.399 57.4995 83.856 54.3345 83.9677C51.2329 84.0794 48.1246 83.6969 45.0364 83.4363C41.9581 83.1723 38.9365 82.9421 36.005 81.8725C35.398 81.6458 35.1579 82.6341 35.7582 82.8541Z" fill="#727272"/>
<path d="M37.6258 48.1851C39.9537 49.1497 42.3316 50.0026 44.8429 50.3039C47.4543 50.6153 50.1157 50.1685 52.7437 50.2362C54.2012 50.2734 55.5118 50.4731 56.9826 50.2599C58.2499 50.0737 59.5173 49.8165 60.7479 49.4611C63.2992 48.7232 65.7705 47.6943 68.2752 46.8075C68.8788 46.5943 68.5987 45.6195 67.9884 45.8327C63.0858 47.5691 58.4901 49.5965 53.1973 49.2479C50.9962 49.1023 48.805 49.4306 46.6105 49.4103C43.6557 49.3799 40.8142 48.4186 38.1061 47.2983C37.5225 47.0546 37.0289 47.938 37.6258 48.1851Z" fill="#727272"/>
<path d="M7.6636 51.2414C13.2665 52.1349 18.4792 54.8257 22.3846 59.0193C26.1633 63.0775 28.2877 68.4253 32.4099 72.1924C32.8868 72.6291 33.5838 71.898 33.1035 71.4614C28.7346 67.4675 26.5501 61.6898 22.3479 57.5368C18.4125 53.6479 13.3232 51.1195 7.91039 50.2564C7.27673 50.1549 7.0266 51.1398 7.6636 51.2414Z" fill="#727272"/>
<path d="M8.53734 49.4237C13.6233 48.2459 19.0295 48.9465 23.5985 51.5425C27.2438 53.614 30.2353 56.8869 34.5876 57.3337C35.2279 57.398 35.2013 56.3826 34.5676 56.3183C29.685 55.8174 26.1632 51.353 21.7609 49.5185C17.4687 47.7314 12.7629 47.4065 8.25386 48.449C7.62353 48.5945 7.91035 49.5693 8.53734 49.4237Z" fill="#727272"/>
<path d="M7.7236 48.7435C7.34006 49.2782 7.09327 49.9044 7.00656 50.5577C6.96987 50.8318 7.0866 51.0992 7.37008 51.1737C7.60687 51.238 7.94038 51.0789 7.97706 50.8047C8.05377 50.2226 8.25721 49.7115 8.59739 49.2342C8.75747 49.0109 8.6174 48.669 8.40395 48.5438C8.14715 48.3982 7.88035 48.5235 7.7236 48.7435Z" fill="#727272"/>
<path d="M71.8103 49.6709C73.8781 45.6533 80.4482 45.1354 84.1568 46.9767C88.1755 48.9736 90.0298 53.8103 88.3823 58.0412C86.9482 61.7271 83.2629 63.5311 80.2314 65.6567C78.954 66.5536 77.5333 67.5622 76.6495 68.8856C75.7257 70.27 75.8457 72.03 74.9319 73.4109C74.5718 73.9559 75.4489 74.4433 75.8057 73.9051C76.3827 73.0352 76.5494 72.1078 76.8062 71.1128C77.1698 69.7217 77.8968 68.8281 78.9407 67.9176C80.7383 66.3505 82.8461 65.2167 84.7604 63.812C88.1488 61.3243 90.5267 57.7907 89.8964 53.3636C89.3194 49.3324 86.1244 45.9985 82.1791 45.264C78.2036 44.5228 72.9642 45.237 70.9332 49.1801C70.6364 49.7555 71.5102 50.2497 71.8103 49.6709Z" fill="#727272"/>
<path d="M72.8242 52.2263C74.2082 49.4238 77.3599 48.6995 80.2214 48.9228C82.129 49.0718 83.3063 49.8333 84.3035 51.4952C85.4074 53.3297 85.3541 54.8832 84.7304 56.8396C83.7499 59.9061 81.9823 61.3277 79.2642 62.7661C77.4833 63.7071 74.7652 64.9391 74.0548 67.0207C73.8447 67.6401 74.8152 67.8838 75.0253 67.2711C75.6723 65.3757 78.8473 64.1437 80.4815 63.2671C81.8989 62.5089 83.2263 61.6729 84.1834 60.3359C85.6976 58.2239 86.9416 54.7749 85.8443 52.2737C84.5036 49.2139 82.4525 47.8567 79.1775 47.8804C76.2627 47.9007 73.3245 48.9567 71.9537 51.7321C71.6636 52.3143 72.5374 52.8084 72.8242 52.2263Z" fill="#727272"/>
<path d="M54.3078 59.571C51.3663 60.0144 48.8817 62.2348 48.5849 65.3385C48.3014 68.2967 50.2691 72.1485 53.6108 71.9217C56.6591 71.7152 59.3672 68.7164 59.6473 65.7176C59.9575 62.4175 57.5195 59.5406 54.2078 59.6861C53.5641 59.7132 53.5841 60.7286 54.2278 60.7015C57.1327 60.5729 59.1337 63.2671 58.5901 66.1035C58.1499 68.3983 55.9687 70.7134 53.5908 70.9097C50.6693 71.15 49.1785 67.3964 49.6421 64.9594C50.0856 62.624 52.0567 60.9317 54.3279 60.5898C54.9549 60.4917 54.9448 59.4729 54.3078 59.571Z" fill="#727272"/>
<path d="M54.8815 60.0144C54.7048 57.8617 58.0365 54.5888 59.7041 57.0799C60.221 57.8516 60.7213 59.2224 60.5078 60.1735C60.2777 61.1923 59.2938 61.9538 58.5401 62.58C58.0432 62.9929 58.7702 63.6935 59.2605 63.284C60.4478 62.299 61.6684 61.1178 61.555 59.4288C61.4616 58.0479 60.7079 56.2269 59.5206 55.4688C56.986 53.8475 53.6776 57.5605 53.881 60.0381C53.9344 60.6846 54.9349 60.6676 54.8815 60.0144Z" fill="#727272"/>
<path d="M59.5274 63.5108C60.7814 62.756 64.0264 62.9557 63.6896 65.1355C63.3694 67.2136 60.718 67.2983 59.1472 67.3186C58.5035 67.3253 58.5235 68.3407 59.1672 68.334C61.3717 68.3069 65.227 67.6029 64.6767 64.4382C64.2432 61.9539 60.788 61.568 59.0038 62.6443C58.4501 62.9794 58.9704 63.8459 59.5274 63.5108Z" fill="#727272"/>
<path d="M58.52 68.52C60.2743 69.3053 62.2487 71.6373 60.5811 73.5192C58.6301 75.7192 55.8086 73.5429 55.0883 71.4207C54.8781 70.8047 53.9176 71.089 54.1278 71.7118C55.0616 74.4534 58.4267 76.8226 61.0214 74.4974C63.5427 72.2398 61.5383 68.7671 59.007 67.6299C58.4233 67.3692 57.9331 68.256 58.52 68.52Z" fill="#727272"/>
<path d="M53.6476 71.6745C53.7377 73.3804 53.2674 75.9189 51.0063 75.6143C49.9791 75.4755 49.1886 74.538 49.2353 73.4752C49.2754 72.5207 49.939 71.4071 50.3026 70.5339C50.5494 69.9382 49.6789 69.4373 49.4288 70.0397C48.8985 71.3191 47.978 72.8118 48.3182 74.257C48.595 75.4281 49.5055 76.3589 50.6728 76.5924C53.651 77.1915 54.7749 74.0743 54.6482 71.6508C54.6148 71.001 53.6143 71.0179 53.6476 71.6745Z" fill="#727272"/>
<path d="M50.1656 69.2715C48.3013 70.0533 45.4232 69.8536 44.7728 67.481C44.4894 66.4385 44.8062 65.2065 45.77 64.6412C46.7072 64.0929 47.9178 64.2385 48.9383 64.3637C49.5687 64.4415 49.8221 63.4566 49.1851 63.3787C47.7711 63.2061 46.1669 63.0538 44.9496 63.9745C43.9391 64.7394 43.5288 66.0797 43.7223 67.3151C44.2225 70.5069 47.9011 71.309 50.4491 70.2429C51.0428 69.9992 50.7626 69.021 50.1656 69.2715Z" fill="#727272"/>
<path d="M49.5454 63.4938C47.8612 62.58 46.9808 59.2224 48.4582 57.7703C50.3992 55.8648 52.7838 58.5657 53.9577 60.0279C54.3646 60.5322 55.0516 59.7978 54.6514 59.2968C53.1173 57.3879 49.7989 54.4669 47.5311 57.2186C45.8635 59.2461 46.8607 63.1892 49.0585 64.384C49.6255 64.692 50.1157 63.8052 49.5454 63.4938Z" fill="#727272"/>
<path d="M51.153 70.9571C50.3626 71.7288 49.849 73.8171 51.0629 74.45C52.517 75.2116 53.1607 72.6223 53.3541 71.6881C53.4408 71.2617 52.7938 71.0958 52.7071 71.5223C52.6204 71.9454 52.5104 72.3617 52.3569 72.7679C52.2802 72.9676 52.1969 73.1672 52.0968 73.3568C51.9434 73.6513 51.8533 73.8408 51.4998 73.8002C50.546 73.6817 51.1997 71.8506 51.6366 71.4275C51.9434 71.1229 51.4631 70.6558 51.153 70.9571Z" fill="#727272"/>
<path d="M55.4519 71.0044C55.2818 71.9792 56.369 72.7441 57.1461 73.0927C57.9331 73.4448 59.0304 73.5632 59.7674 73.0115C60.4711 72.4835 60.3611 71.5256 60.0576 70.7946C59.644 69.7995 58.7936 69.1293 57.8098 68.7773C57.4029 68.6318 57.2428 69.2918 57.6463 69.4339C58.24 69.6472 58.7736 70.0059 59.1504 70.5272C59.2805 70.7099 59.3806 70.9029 59.4639 71.1127C59.6574 71.6069 59.6874 71.8303 59.3439 72.2601C59.0504 72.6257 58.897 72.7103 58.4501 72.7137C58.1699 72.7137 57.8798 72.6561 57.6163 72.5614C57.2128 72.4158 55.9955 71.7727 56.0989 71.177C56.1722 70.7438 55.5286 70.5746 55.4519 71.0044Z" fill="#727272"/>
<path d="M59.3206 66.6248C60.1577 66.838 60.9914 66.4725 61.6951 66.0223C62.2087 65.694 62.8857 65.0949 62.8257 64.401C62.7757 63.8223 62.2087 63.5481 61.7018 63.4872C60.828 63.3789 59.9709 63.7613 59.2605 64.242C58.9037 64.4823 59.2505 65.0644 59.6074 64.8207C59.9776 64.5669 60.3711 64.3435 60.808 64.2318C61.2115 64.1269 62.3855 63.9577 62.0286 64.8072C61.7151 65.562 60.1943 66.1475 59.484 65.9681C59.0671 65.8632 58.9037 66.5198 59.3206 66.6248Z" fill="#727272"/>
<path d="M56.209 60.3056C56.1556 59.7911 56.2624 59.28 56.6292 58.9009C56.896 58.62 57.543 58.2477 57.9232 58.4643C58.2601 58.6572 58.2367 59.4696 58.2367 59.8453C58.2334 60.3834 58.12 60.8945 57.9432 61.3988C57.7998 61.8084 58.4468 61.9708 58.5903 61.5647C58.8771 60.7456 58.9771 59.8859 58.8404 59.0228C58.747 58.4305 58.647 57.8415 57.9899 57.7535C56.5358 57.5538 55.4053 58.9246 55.5487 60.3225C55.5853 60.749 56.2524 60.7388 56.209 60.3056Z" fill="#727272"/>
<path d="M50.0158 62.5698C49.4988 61.9098 49.0553 60.7116 49.2287 59.8621C49.3321 59.3476 49.4522 59.1987 49.9791 59.1445C50.506 59.0904 50.6361 59.2494 51.0163 59.5608C51.4032 59.8756 51.78 60.2005 52.1636 60.5187C52.4937 60.7928 52.9573 60.3088 52.6238 60.0313C51.6833 59.2461 50.1725 57.4353 48.9752 58.8128C48.0481 59.8824 48.6717 61.9402 49.4455 62.9252C49.709 63.2603 50.2826 62.9116 50.0158 62.5698Z" fill="#727272"/>
<path d="M48.8185 65.2065C47.5178 64.6785 45.8202 65.8529 46.0203 67.3354C46.2071 68.7401 48.4383 69.2613 49.4421 68.4693C49.7756 68.2053 49.4321 67.6231 49.0953 67.8905C48.5483 68.3237 47.1876 68.2087 46.7874 67.5622C46.2004 66.6246 47.6312 65.4434 48.4983 65.7988C48.8885 65.9579 49.2153 65.3689 48.8185 65.2065Z" fill="#727272"/>
</g>
<defs>
<clipPath id="clip0_130_303">
<rect width="44" height="49" fill="white" transform="translate(31)"/>
</clipPath>
<clipPath id="clip1_130_303">
<rect width="83" height="40" fill="white" transform="translate(7 45)"/>
</clipPath>
</defs>
</svg>
